<?xml version="1.0" encoding="UTF-8"?>
<!DOCTYPE svg PUBLIC "-//W3C//DTD SVG 1.1//EN" "http://www.w3.org/Graphics/SVG/1.1/DTD/svg11.dtd">
<svg xmlns="http://www.w3.org/2000/svg" style="background-color: rgb(255, 255, 255);" xmlns:xlink="http://www.w3.org/1999/xlink" version="1.1" width="481px" height="593px" viewBox="-0.5 -0.5 481 593"><defs><clipPath id="mx-clip-144-31-192-26-0"><rect x="144" y="31" width="192" height="26"/></clipPath><clipPath id="mx-clip-144-57-192-26-0"><rect x="144" y="57" width="192" height="26"/></clipPath><clipPath id="mx-clip-144-83-192-26-0"><rect x="144" y="83" width="192" height="26"/></clipPath><clipPath id="mx-clip-144-117-192-26-0"><rect x="144" y="117" width="192" height="26"/></clipPath><clipPath id="mx-clip-144-143-192-26-0"><rect x="144" y="143" width="192" height="26"/></clipPath><clipPath id="mx-clip-144-169-192-26-0"><rect x="144" y="169" width="192" height="26"/></clipPath><clipPath id="mx-clip-4-271-192-26-0"><rect x="4" y="271" width="192" height="26"/></clipPath><clipPath id="mx-clip-4-297-192-26-0"><rect x="4" y="297" width="192" height="26"/></clipPath><clipPath id="mx-clip-4-323-192-26-0"><rect x="4" y="323" width="192" height="26"/></clipPath><clipPath id="mx-clip-4-349-192-26-0"><rect x="4" y="349" width="192" height="26"/></clipPath><clipPath id="mx-clip-4-383-192-26-0"><rect x="4" y="383" width="192" height="26"/></clipPath><clipPath id="mx-clip-4-409-192-26-0"><rect x="4" y="409" width="192" height="26"/></clipPath><clipPath id="mx-clip-4-511-192-26-0"><rect x="4" y="511" width="192" height="26"/></clipPath><clipPath id="mx-clip-4-537-192-26-0"><rect x="4" y="537" width="192" height="26"/></clipPath><clipPath id="mx-clip-4-563-192-26-0"><rect x="4" y="563" width="192" height="26"/></clipPath><clipPath id="mx-clip-284-271-192-26-0"><rect x="284" y="271" width="192" height="26"/></clipPath><clipPath id="mx-clip-284-297-192-26-0"><rect x="284" y="297" width="192" height="26"/></clipPath><clipPath id="mx-clip-284-323-192-26-0"><rect x="284" y="323" width="192" height="26"/></clipPath></defs><g><path d="M 240 190 L 240 205 Q 240 215 230 215 L 110 215 Q 100 215 100 225 L 100 240" fill="none" stroke="#000000" stroke-miterlimit="10" pointer-events="stroke"/><path d="M 104 240 L 100 232 L 96 240" fill="none" stroke="#000000" stroke-miterlimit="10" pointer-events="all"/><path d="M 240 190 L 240 205 Q 240 215 250 215 L 370 215 Q 380 215 380 224.32 L 380 233.63" fill="none" stroke="#000000" stroke-miterlimit="10" pointer-events="stroke"/><path d="M 380 238.88 L 376.5 231.88 L 380 233.63 L 383.5 231.88 Z" fill="#000000" stroke="#000000" stroke-miterlimit="10" pointer-events="all"/><path d="M 140 26 L 140 0 L 340 0 L 340 26" fill="#ffffff" stroke="#000000" stroke-miterlimit="10" pointer-events="all"/><path d="M 140 26 L 140 190 L 340 190 L 340 26" fill="none" stroke="#000000" stroke-miterlimit="10" pointer-events="none"/><path d="M 140 26 L 340 26" fill="none" stroke="#000000" stroke-miterlimit="10" pointer-events="none"/><g fill="#000000" font-family="Helvetica" font-weight="bold" pointer-events="none" text-anchor="middle" font-size="9px"><text x="239.5" y="14.5">Station</text></g><g fill="#000000" font-family="Helvetica" pointer-events="none" clip-path="url(#mx-clip-144-31-192-26-0)" font-size="9px"><text x="145.5" y="40.5">station_id: CharField</text></g><g fill="#000000" font-family="Helvetica" pointer-events="none" clip-path="url(#mx-clip-144-57-192-26-0)" font-size="9px"><text x="145.5" y="66.5">logo: ImageField</text></g><g fill="#000000" font-family="Helvetica" pointer-events="none" clip-path="url(#mx-clip-144-83-192-26-0)" font-size="9px"><text x="145.5" y="92.5">phone_number: CharField</text></g><path d="M 140 108 L 340 108" fill="none" stroke="#000000" stroke-miterlimit="10" pointer-events="none"/><g fill="#000000" font-family="Helvetica" pointer-events="none" clip-path="url(#mx-clip-144-117-192-26-0)" font-size="9px"><text x="145.5" y="126.5">format_phone_number()</text></g><g fill="#000000" font-family="Helvetica" pointer-events="none" clip-path="url(#mx-clip-144-143-192-26-0)" font-size="9px"><text x="145.5" y="152.5">get_name()</text></g><g fill="#000000" font-family="Helvetica" pointer-events="none" clip-path="url(#mx-clip-144-169-192-26-0)" font-size="9px"><text x="145.5" y="178.5">get_path()</text></g><path d="M 100 430 L 100 480" fill="none" stroke="#000000" stroke-miterlimit="10" pointer-events="none"/><path d="M 104 480 L 100 472 L 96 480" fill="none" stroke="#000000" stroke-miterlimit="10" pointer-events="none"/><path d="M 0 266 L 0 240 L 200 240 L 200 266" fill="#ffffff" stroke="#000000" stroke-miterlimit="10" pointer-events="none"/><path d="M 0 266 L 0 430 L 200 430 L 200 266" fill="none" stroke="#000000" stroke-miterlimit="10" pointer-events="none"/><path d="M 0 266 L 200 266" fill="none" stroke="#000000" stroke-miterlimit="10" pointer-events="none"/><g fill="#000000" font-family="Helvetica" font-weight="bold" pointer-events="none" text-anchor="middle" font-size="9px"><text x="99.5" y="254.5">Vehicle</text></g><g fill="#000000" font-family="Helvetica" pointer-events="none" clip-path="url(#mx-clip-4-271-192-26-0)" font-size="9px"><text x="5.5" y="280.5">name: CharField</text></g><g fill="#000000" font-family="Helvetica" pointer-events="none" clip-path="url(#mx-clip-4-297-192-26-0)" font-size="9px"><text x="5.5" y="306.5">call_sign: CharField</text></g><g fill="#000000" font-family="Helvetica" pointer-events="none" clip-path="url(#mx-clip-4-323-192-26-0)" font-size="9px"><text x="5.5" y="332.5">station: ForeignKey</text></g><g fill="#000000" font-family="Helvetica" pointer-events="none" clip-path="url(#mx-clip-4-349-192-26-0)" font-size="9px"><text x="5.5" y="358.5">bags: ManyToManyField</text></g><path d="M 0 374 L 200 374" fill="none" stroke="#000000" stroke-miterlimit="10" pointer-events="none"/><g fill="#000000" font-family="Helvetica" pointer-events="none" clip-path="url(#mx-clip-4-383-192-26-0)" font-size="9px"><text x="5.5" y="392.5">get_station_assigned()</text></g><g fill="#000000" font-family="Helvetica" pointer-events="none" clip-path="url(#mx-clip-4-409-192-26-0)" font-size="9px"><text x="5.5" y="418.5">get_path()</text></g><path d="M 0 506 L 0 480 L 200 480 L 200 506" fill="#ffffff" stroke="#000000" stroke-miterlimit="10" pointer-events="none"/><path d="M 0 506 L 0 592 L 200 592 L 200 506" fill="none" stroke="#000000" stroke-miterlimit="10" pointer-events="none"/><path d="M 0 506 L 200 506" fill="none" stroke="#000000" stroke-miterlimit="10" pointer-events="none"/><g fill="#000000" font-family="Helvetica" font-weight="bold" pointer-events="none" text-anchor="middle" font-size="9px"><text x="99.5" y="494.5">VehicleToBagAssociation</text></g><g fill="#000000" font-family="Helvetica" pointer-events="none" clip-path="url(#mx-clip-4-511-192-26-0)" font-size="9px"><text x="5.5" y="520.5">vehicle: ForeignKey</text></g><g fill="#000000" font-family="Helvetica" pointer-events="none" clip-path="url(#mx-clip-4-537-192-26-0)" font-size="9px"><text x="5.5" y="546.5">bag: ForeignKey</text></g><g fill="#000000" font-family="Helvetica" pointer-events="none" clip-path="url(#mx-clip-4-563-192-26-0)" font-size="9px"><text x="5.5" y="572.5">quantity: SmallIntegerField</text></g><path d="M 0 588 L 200 588" fill="none" stroke="#000000" stroke-miterlimit="10" pointer-events="none"/><path d="M 280 266 L 280 240 L 480 240 L 480 266" fill="#ffffff" stroke="#000000" stroke-miterlimit="10" pointer-events="none"/><path d="M 280 266 L 280 352 L 480 352 L 480 266" fill="none" stroke="#000000" stroke-miterlimit="10" pointer-events="none"/><path d="M 280 266 L 480 266" fill="none" stroke="#000000" stroke-miterlimit="10" pointer-events="none"/><g fill="#000000" font-family="Helvetica" font-weight="bold" pointer-events="none" text-anchor="middle" font-size="9px"><text x="379.5" y="254.5">StationInventory</text></g><g fill="#000000" font-family="Helvetica" pointer-events="none" clip-path="url(#mx-clip-284-271-192-26-0)" font-size="9px"><text x="285.5" y="280.5">name: CharField</text></g><g fill="#000000" font-family="Helvetica" pointer-events="none" clip-path="url(#mx-clip-284-297-192-26-0)" font-size="9px"><text x="285.5" y="306.5">station: OneToOnField</text></g><g fill="#000000" font-family="Helvetica" pointer-events="none" clip-path="url(#mx-clip-284-323-192-26-0)" font-size="9px"><text x="285.5" y="332.5">items: ManyToManyField</text></g><path d="M 280 348 L 480 348" fill="none" stroke="#000000" stroke-miterlimit="10" pointer-events="none"/></g></svg>